<?xml version="1.0" encoding="UTF-8"?>
<svg width="30px" height="30px" viewBox="0 0 30 30" version="1.1" xmlns="http://www.w3.org/2000/svg" xmlns:xlink="http://www.w3.org/1999/xlink">
    <!-- Generator: Sketch 55 (78076) - https://sketchapp.com -->
    <title>Services/favorite_car</title>
    <desc>Created with Sketch.</desc>
    <defs>
        <path d="M22.1453201,22.7056105 C21.2420704,22.7056105 20.6529945,23.2966566 20.6529945,24.1635241 C20.6529945,25.0303917 21.2420704,25.6214378 22.1453201,25.6214378 C23.0499725,25.6214378 23.6376458,25.0303917 23.6376458,24.1635241 C23.6376458,23.2966566 23.0499725,22.7056105 22.1453201,22.7056105 Z M26.3473949,6.23512699 C26.3473949,5.17124408 25.6405038,4.38318266 24.6194389,4.38318266 C23.7554609,4.38318266 23.0878416,4.69840723 22.1453201,5.60467786 C21.2027987,4.69840723 20.5351793,4.38318266 19.6712013,4.38318266 C18.6501364,4.38318266 17.9432453,5.17124408 17.9432453,6.23512699 C17.9432453,7.77184675 19.6319296,9.9784187 22.1453201,11.7121538 C24.6587106,9.9784187 26.3473949,7.77184675 26.3473949,6.23512699 Z M24.6979823,3.04347826 C26.4273409,3.04347826 27.7233079,4.38318266 27.7233079,6.19572392 C27.7233079,8.08707132 25.7975907,10.687674 22.6965268,12.894246 L21.595516,12.894246 C18.4930495,10.687674 16.5687348,8.08707132 16.5687348,6.19572392 C16.5687348,4.38318266 17.8647019,3.04347826 19.5926579,3.04347826 C20.5351793,3.04347826 21.2420704,3.31929976 22.1453201,4.0679581 C23.0499725,3.31929976 23.7554609,3.04347826 24.6979823,3.04347826 Z M8.12531351,22.7056105 C7.22206378,22.7056105 6.63298788,23.2966566 6.63298788,24.1635241 C6.63298788,25.0303917 7.22206378,25.6214378 8.12531351,25.6214378 C9.02856324,25.6214378 9.61763914,25.0303917 9.61763914,24.1635241 C9.61763914,23.2966566 9.02856324,22.7056105 8.12531351,22.7056105 Z M10.9136061,24.1635241 L19.3570275,24.1635241 C19.3570275,22.5874013 20.5351793,21.4053092 22.1453201,21.4053092 C23.7554609,21.4053092 24.9336128,22.5874013 24.9336128,24.1635241 C24.9336128,25.739647 23.7554609,26.9217391 22.1453201,26.9217391 C21.0471143,26.9217391 20.142462,26.3700961 19.6712013,25.5032286 L10.5994323,25.5032286 C10.1281716,26.3700961 9.22492187,26.9217391 8.12531351,26.9217391 C6.5151727,26.9217391 5.33702088,25.739647 5.33702088,24.1635241 C5.33702088,22.5874013 6.5151727,21.4053092 8.12531351,21.4053092 C9.73545435,21.4053092 10.9136061,22.5874013 10.9136061,24.1635241 Z M2.50945652,21.7205338 C2.50945652,19.7897834 2.62727171,19.5139618 4.55158634,17.2285837 C6.5151727,14.8643995 7.45769415,14.3127565 9.53909569,14.3127565 L14.526605,14.3127565 C16.7650935,14.3127565 17.982517,14.7067872 19.7497448,15.9282824 L22.734396,18.1742574 L24.6587106,18.6470942 C26.7401122,19.1199311 27.7233079,20.3414263 27.7233079,22.3509829 C27.7233079,23.3360597 27.4470033,24.2029273 26.9364709,24.9121825 L25.838265,24.1241211 C26.2295797,23.533075 26.3473949,23.0996413 26.3473949,22.3509829 C26.3473949,20.9718754 25.6405038,20.2232171 23.8732761,19.7897834 L21.9489615,19.3169465 L19.0428536,17.1103746 C17.6290715,16.0464916 16.4116479,15.6524609 14.526605,15.6524609 L9.53909569,15.6524609 C7.92895487,15.6524609 7.33987897,16.0464916 5.53337951,18.2136605 C4.04105389,20.0262017 3.88396698,20.2626202 3.88396698,21.9175491 L3.88396698,22.7450136 C3.88396698,23.3360597 4.00178216,23.6906873 4.3552277,24.045315 L3.41410881,24.9121825 C2.78435862,24.3605396 2.50945652,23.6906873 2.50945652,22.7450136 L2.50945652,21.7205338 Z" id="path-1"></path>
    </defs>
    <g id="Services/favorite_car" stroke="none" stroke-width="1" fill="none" fill-rule="evenodd">
        <g id="Group">
            <mask id="mask-2" fill="white">
                <use xlink:href="#path-1"></use>
            </mask>
            <use id="icons/30/favorite_car" fill="#FFFFFF" xlink:href="#path-1"></use>
        </g>
    </g>
</svg>